<svg width="33" height="33" viewBox="0 0 33 33" fill="none" xmlns="http://www.w3.org/2000/svg">
<g clip-path="url(#clip0_1_20)">
<path d="M16.11 32.2351C24.6788 32.2351 31.6252 25.2888 31.6252 16.72C31.6252 8.1512 24.6788 1.20483 16.11 1.20483C7.54122 1.20483 0.594849 8.1512 0.594849 16.72C0.594849 25.2888 7.54122 32.2351 16.11 32.2351Z" fill="#E9F8F5"/>
<mask id="mask0_1_20" style="mask-type:luminance" maskUnits="userSpaceOnUse" x="8" y="9" width="15" height="16">
<path d="M8.35242 9.93213H22.8979V24.4776H8.35242V9.93213Z" fill="white"/>
</mask>
<g mask="url(#mask0_1_20)">
<path d="M8.6569 16.304C8.55336 16.3552 8.46866 16.4379 8.41488 16.5401C8.3611 16.6423 8.341 16.7589 8.35746 16.8732C8.37391 16.9875 8.42608 17.0937 8.5065 17.1766C8.58692 17.2595 8.69149 17.3149 8.80526 17.3348L14.4954 18.3647L15.5301 24.0277C15.5535 24.1544 15.6207 24.2689 15.72 24.3512C15.8192 24.4334 15.9442 24.4782 16.0731 24.4776C16.1755 24.4778 16.2758 24.4495 16.363 24.3959C16.4501 24.3423 16.5207 24.2655 16.5667 24.1741C18.8013 19.7096 20.8995 15.178 22.8581 10.5857C22.8952 10.499 22.9052 10.4031 22.8869 10.3105C22.8685 10.218 22.8226 10.1331 22.7552 10.0671C22.6878 10.0011 22.6021 9.95694 22.5092 9.94048C22.4163 9.92401 22.3206 9.93599 22.2346 9.97483C17.6599 11.978 13.1328 14.088 8.6569 16.3031V16.304Z" fill="#00A082"/>
</g>
</g>
<defs>
<clipPath id="clip0_1_20">
<rect width="32" height="31.0303" fill="white" transform="translate(0.109985 1.20483)"/>
</clipPath>
</defs>
</svg>
