<svg width="171" height="137" viewBox="0 0 171 137" fill="none" xmlns="http://www.w3.org/2000/svg">
<path d="M119.796 68.6416C118.607 67.0831 117.253 65.729 115.694 64.7035C115.653 64.4981 115.653 64.376 115.612 64.1288C116.924 59.74 114.546 52.5201 113.151 48.1314C106.752 27.9498 85.298 15.5609 64.7471 17.3249C39.9296 19.4165 21.8813 40.7884 19.748 64.908C18.8446 75.1229 20.8965 84.9269 26.5579 93.4581C34.023 104.698 45.9603 107.856 58.1834 111.384C64.5416 113.231 71.8846 115.65 79.4321 117.537C83.7802 119.383 88.4161 120.573 94.2819 120.203C94.3226 120.203 94.405 120.163 94.4457 120.163C108.147 121.311 120.822 118.07 127.672 103.098C133.333 90.8741 131.405 76.4343 119.796 68.6416Z" fill="#FFC244"/>
<path d="M38.4535 83.0814C38.4535 83.0814 41.6112 73.3182 36.1146 67.8206C30.6181 62.324 28.5671 49.403 41.2836 42.7986" stroke="#222221" stroke-width="1.64093" stroke-miterlimit="10" stroke-linecap="round" stroke-linejoin="round" stroke-dasharray="1.64 1.64"/>
<path d="M30.7004 114.83C37.4508 114.83 42.9246 109.357 42.9246 102.606C42.9246 95.8555 37.4518 90.3817 30.7004 90.3817C23.9501 90.3817 18.4763 95.8555 18.4763 102.606C18.4763 109.357 23.9491 114.83 30.7004 114.83Z" fill="#FFC244" stroke="#222221" stroke-width="1.64093" stroke-miterlimit="10" stroke-linecap="round" stroke-linejoin="round"/>
<path d="M30.7005 109.743C32.5934 109.743 34.4089 108.991 35.7474 107.653C37.086 106.314 37.838 104.499 37.838 102.606C37.838 100.713 37.086 98.8975 35.7474 97.5589C34.4089 96.2204 32.5934 95.4684 30.7005 95.4684C28.8075 95.4684 26.992 96.2204 25.6535 97.5589C24.3149 98.8975 23.5629 100.713 23.5629 102.606C23.5629 104.499 24.3149 106.314 25.6535 107.653C26.992 108.991 28.8075 109.743 30.7005 109.743Z" fill="white" stroke="#222221" stroke-width="1.64093" stroke-miterlimit="10" stroke-linecap="round" stroke-linejoin="round"/>
<path d="M80.0476 129.228C86.798 129.228 92.2717 123.755 92.2717 117.004C92.2717 110.253 86.799 104.78 80.0476 104.78C73.2972 104.78 67.8235 110.253 67.8235 117.004C67.8235 123.755 73.2963 129.228 80.0476 129.228Z" fill="#FFC244" stroke="#222221" stroke-width="1.64093" stroke-miterlimit="10" stroke-linecap="round" stroke-linejoin="round"/>
<path d="M79.9245 124.306C80.8393 124.322 81.7481 124.155 82.5977 123.815C83.4474 123.476 84.2209 122.971 84.8733 122.329C85.5256 121.688 86.0437 120.922 86.3973 120.079C86.7509 119.235 86.9329 118.329 86.9328 117.414C86.9327 116.499 86.7504 115.593 86.3965 114.749C86.0427 113.906 85.5244 113.141 84.8718 112.499C84.2193 111.858 83.4456 111.353 82.5959 111.014C81.7461 110.675 80.8373 110.508 79.9225 110.524C78.1151 110.555 76.3922 111.294 75.125 112.584C73.8578 113.873 73.1479 115.608 73.1482 117.416C73.1484 119.224 73.8589 120.959 75.1264 122.248C76.3939 123.537 78.1171 124.276 79.9245 124.306ZM28.9771 103.181L28.6902 102.688C28.4374 102.225 28.3774 101.681 28.5233 101.174C28.6692 100.668 29.0092 100.239 29.4695 99.9812L43.8676 92.1051C44.3306 91.8525 44.8745 91.7926 45.3813 91.9385C45.8881 92.0844 46.3169 92.4243 46.5747 92.8843L46.8626 93.3767C47.3957 94.3615 47.0264 95.5507 46.0833 96.0838L31.6852 103.96C30.7005 104.493 29.4695 104.124 28.9771 103.181Z" fill="white" stroke="#222221" stroke-width="1.64093" stroke-miterlimit="10" stroke-linecap="round" stroke-linejoin="round"/>
<path d="M65.6495 110.031L80.4993 114.379C81.1962 114.584 81.7699 114.995 82.1809 115.569C82.4601 115.95 82.6502 116.389 82.7373 116.853C82.8245 117.318 82.8063 117.796 82.6843 118.252C82.5623 118.709 82.3396 119.132 82.0324 119.491C81.7252 119.85 81.3414 120.135 80.9093 120.327C80.2114 120.655 79.4321 120.696 78.6946 120.491L62.8193 115.855L65.6495 110.031ZM55.5994 77.1332L48.2981 101.745C48.2981 101.745 46.3295 107.242 49.3235 108.103C52.3185 108.964 60.686 111.426 60.686 111.426L61.0553 115.855L46.6164 111.672C44.5655 111.057 43.006 109.416 42.4729 107.323L33.9823 90.5873C34.023 90.628 42.6377 73.3589 55.5994 77.1332Z" fill="white" stroke="#222221" stroke-width="1.64093" stroke-miterlimit="10" stroke-linecap="round" stroke-linejoin="round"/>
<path d="M66.7573 94.2792C63.1886 94.1561 60.3584 97.2741 60.8091 100.801L60.2353 115.651L65.9781 117.333C65.9781 117.333 66.9211 99.6526 82.7964 98.2172L82.6316 94.4846L66.7573 94.2792Z" fill="white" stroke="#222221" stroke-width="1.64093" stroke-miterlimit="10" stroke-linecap="round" stroke-linejoin="round"/>
<path d="M85.6673 96.1255C85.5442 97.6841 84.1911 98.8326 82.5909 98.7095L60.8905 97.151C59.3319 97.0279 58.1834 95.6739 58.3075 94.0736C58.4296 92.5151 59.7836 91.3665 61.3838 91.4896L83.0833 93.0482C84.6418 93.213 85.7904 94.567 85.6673 96.1255Z" fill="white" stroke="#222221" stroke-width="1.64093" stroke-miterlimit="10" stroke-linecap="round" stroke-linejoin="round"/>
<path d="M85.6673 96.1255C85.5442 97.6841 84.1911 98.8326 82.5909 98.7095L60.8905 97.151C59.3319 97.0279 58.1834 95.6739 58.3075 94.0736C58.4296 92.5151 59.7836 91.3665 61.3838 91.4896L83.0833 93.0482C84.6418 93.213 85.7904 94.567 85.6673 96.1255Z" fill="#FFC244" stroke="#222221" stroke-width="1.64093" stroke-miterlimit="10" stroke-linecap="round" stroke-linejoin="round"/>
<path d="M55.3949 77.8301L47.4781 75.4923C45.5086 74.9175 44.36 72.8259 44.9348 70.8156L45.4679 69.0109C46.0416 67.0414 48.1343 65.8938 50.1435 66.4676L58.0613 68.8054L55.3949 77.8301Z" fill="white" stroke="#222221" stroke-width="1.64093" stroke-miterlimit="10" stroke-linecap="round" stroke-linejoin="round"/>
<path d="M60.7684 73.9744L54.4925 72.128C54.2305 72.0512 53.9863 71.9231 53.7741 71.7513C53.5619 71.5795 53.3858 71.3673 53.2561 71.127C53.1264 70.8867 53.0456 70.6231 53.0185 70.3514C52.9913 70.0796 53.0182 69.8052 53.0978 69.544C53.1745 69.2819 53.3025 69.0377 53.4743 68.8254C53.6461 68.6131 53.8583 68.437 54.0986 68.3072C54.3389 68.1775 54.6026 68.0968 54.8744 68.0697C55.1461 68.0425 55.4205 68.0696 55.6818 68.1493L61.9576 69.9957C62.2196 70.0726 62.4638 70.2006 62.6761 70.3724C62.8883 70.5443 63.0643 70.7565 63.194 70.9968C63.3237 71.237 63.4045 71.5007 63.4317 71.7724C63.4589 72.0441 63.4319 72.3185 63.3524 72.5797C63.2755 72.8417 63.1475 73.0859 62.9756 73.2981C62.8038 73.5104 62.5916 73.6864 62.3513 73.8161C62.111 73.9458 61.8474 74.0266 61.5757 74.0538C61.304 74.0809 61.0296 74.054 60.7684 73.9744Z" fill="#FFC244" stroke="#222221" stroke-width="1.64093" stroke-miterlimit="10" stroke-linecap="round" stroke-linejoin="round"/>
<path d="M54.5332 68.1492L60.5629 60.9293" stroke="#222221" stroke-width="1.64093" stroke-miterlimit="10" stroke-linecap="round" stroke-linejoin="round"/>
<path d="M63.9271 64.7859L61.096 63.965C60.6827 63.8451 60.3339 63.566 60.1263 63.189C59.9188 62.8121 59.8694 62.3681 59.9891 61.9548L60.1122 61.5041C60.2319 61.0906 60.5109 60.7416 60.8879 60.5338C61.2649 60.3261 61.7089 60.2766 62.1224 60.3962L64.9516 61.2172C65.3649 61.3369 65.7137 61.6157 65.9214 61.9925C66.1292 62.3692 66.1788 62.8131 66.0595 63.2264L65.9364 63.6781C65.8167 64.0913 65.5378 64.4402 65.1611 64.6479C64.7843 64.8556 64.3405 64.9053 63.9271 64.7859ZM49.4883 47.1466C50.8007 50.3054 53.7539 54.8172 53.7539 54.8172C54.2046 55.5151 55.1487 55.7206 55.8456 55.1865C55.8456 55.1865 59.9891 52.1508 62.2862 49.6899C64.0909 47.7621 65.6495 45.9981 67.0442 44.2757C72.2539 37.8758 74.6334 32.9123 75.5358 27.785C77.0119 19.5813 70.9823 11.6635 62.7776 10.2291C54.5739 8.75195 46.2054 14.1254 44.7293 22.2884C43.8676 27.0881 44.2776 32.2561 46.534 39.3122C47.3133 41.6908 48.2981 44.2757 49.4873 47.1466H49.4883ZM61.5476 17.2435C66.0188 18.0228 68.973 22.2884 68.1928 26.7595C67.4135 31.2307 63.1469 34.1849 58.6758 33.4047C54.2046 32.6254 51.2513 28.3598 52.0306 23.8887C52.8099 19.4175 57.0765 16.4633 61.5476 17.2435Z" fill="white" stroke="#222221" stroke-width="1.64093" stroke-miterlimit="10" stroke-linecap="round" stroke-linejoin="round"/>
<path d="M37.2632 47.5984C39.9296 49.7307 44.6886 52.274 44.6886 52.274C44.8648 52.3724 45.0594 52.4336 45.2602 52.4538C45.4611 52.474 45.6639 52.4527 45.8562 52.3913C46.0485 52.3299 46.2261 52.2296 46.378 52.0967C46.53 51.9639 46.653 51.8012 46.7395 51.6188C46.7395 51.6188 48.9542 46.9412 49.7752 43.701C50.3808 41.38 50.9142 39.0407 51.3744 36.6866C52.8923 28.5643 52.6054 23.0677 50.9645 18.1459C48.3388 10.2698 39.2734 6.16701 31.3566 8.7927C23.4398 11.4184 18.6401 20.1145 21.2658 27.9905C22.7837 32.6265 25.6139 36.9745 30.9466 42.1018C32.7514 43.8241 34.843 45.6289 37.2632 47.5984ZM33.613 15.5609C37.9204 14.1255 42.5553 16.4643 43.9907 20.7706C45.4262 25.078 43.0884 29.7129 38.781 31.1493C34.4737 32.5848 29.8388 30.246 28.4033 25.9396C26.9679 21.6323 29.3057 16.9974 33.613 15.5609Z" fill="#FFC244" stroke="#222221" stroke-width="1.64093" stroke-miterlimit="10" stroke-linecap="round" stroke-linejoin="round"/>
<path d="M82.5502 80.9065L104.003 87.3054V37.8759L82.3447 46.285C81.4308 46.462 80.6072 46.952 80.0158 47.6708C79.4244 48.3897 79.1021 49.2922 79.1045 50.2231V76.9684C79.1045 78.9369 80.5817 80.6196 82.5502 80.9065ZM139.568 80.291L104.003 87.3054V37.8759L136.328 43.6603C137.242 43.8372 138.065 44.3273 138.657 45.0461C139.248 45.765 139.57 46.6675 139.568 47.5984V80.291Z" fill="white"/>
<path d="M104.003 87.3054L82.5502 80.9065C80.5817 80.6196 79.1045 78.9369 79.1045 76.9684V50.2231C79.1021 49.2922 79.4244 48.3897 80.0158 47.6708C80.6072 46.952 81.4308 46.462 82.3447 46.285L104.003 37.8759M104.003 87.3054V37.8759M104.003 87.3054L139.568 80.291V47.5984C139.57 46.6675 139.248 45.765 138.657 45.0461C138.065 44.3273 137.242 43.8372 136.328 43.6603L104.003 37.8759" stroke="#222221" stroke-width="1.64093" stroke-miterlimit="10" stroke-linecap="round" stroke-linejoin="round"/>
<path d="M139.568 51.1263L104.003 46.8597L79.1045 54.2434M117.171 48.4183V41.1169M129.6 49.9768V43.2493" stroke="#222221" stroke-width="1.64093" stroke-miterlimit="10" stroke-linecap="round" stroke-linejoin="round"/>
<path d="M104.003 87.3054L135.918 97.2324L166.519 87.3054L139.568 80.291L104.003 87.3054Z" fill="white"/>
<path d="M139.568 80.2909L104.003 76.1474M121.93 58.7969V55.3096C121.93 54.2841 122.75 53.4235 123.817 53.4235H123.94L127.057 53.8334C127.542 53.8561 128 54.0646 128.336 54.4157C128.672 54.7668 128.86 55.2336 128.862 55.7196V59.2069M104.003 87.3053L130.708 95.5914C134.104 96.6521 137.747 96.6236 141.127 95.51L162.539 88.577C163.688 88.2077 163.647 86.5261 162.458 86.2392L139.568 80.2502L104.003 87.3053Z" stroke="#222221" stroke-width="1.64093" stroke-miterlimit="10" stroke-linecap="round" stroke-linejoin="round"/>
<path d="M136.82 84.4752L117.171 86.3614L118.073 57.8113L135.425 59.4532L136.82 84.4752Z" fill="#FFC244" stroke="#222221" stroke-width="1.64093" stroke-miterlimit="10" stroke-linecap="round" stroke-linejoin="round"/>
<path d="M117.171 86.3623L109.336 83.8607L111.51 59.6984L118.074 57.8123L117.171 86.3623Z" fill="#FFC244" stroke="#222221" stroke-width="1.64093" stroke-miterlimit="10" stroke-linecap="round" stroke-linejoin="round"/>
<path d="M91.1222 111.877L105.849 114.83M92.2717 118.317L102.281 120.286M90.4253 124.347L98.0552 125.865" stroke="#222221" stroke-width="1.64093" stroke-miterlimit="10" stroke-linecap="round" stroke-linejoin="round"/>
<path d="M109.172 10.7205C109.172 10.7205 109.336 14.043 102.445 23.6831C95.5536 33.3223 86.4059 29.3852 85.9542 26.1033C85.4628 22.8215 89.0316 22.2884 89.0316 22.2884C90.2208 22.2884 91.287 22.0422 92.1893 22.3708C92.1893 22.3708 101.46 21.6729 98.0562 39.886" stroke="#222221" stroke-width="1.64093" stroke-miterlimit="10" stroke-linecap="round" stroke-linejoin="round" stroke-dasharray="2.87 2.87"/>
<path d="M112.741 11.7062C112.243 10.9585 111.695 10.2454 111.1 9.57192C110.689 9.12123 110.239 8.46506 109.623 8.30126C109.09 8.17717 108.638 8.50576 108.228 8.75195C107.326 9.28503 106.464 9.8598 105.562 10.4336C104.742 10.9667 105.481 12.28 106.341 11.7459C106.834 11.4183 107.367 11.0907 107.859 10.8029C108.105 10.6391 109.09 9.81811 109.377 9.8598C109.131 9.77741 109.172 9.89951 109.541 10.1467C109.746 10.3522 109.952 10.5974 110.156 10.8029C110.608 11.3359 111.018 11.869 111.387 12.4438C111.961 13.2638 113.315 12.5262 112.741 11.7062Z" fill="#222221"/>
</svg>
