<svg width="171" height="137" viewBox="0 0 171 137" fill="none" xmlns="http://www.w3.org/2000/svg">
<g clip-path="url(#clip0_1_155)">
<path d="M25.6933 66.1201C28.7608 71.8351 33.3004 76.4164 38.0912 80.5341C46.2859 87.5952 50.5297 92.8059 54.6067 103.018C66.2054 132.183 101.171 143.32 129.412 130.755C162.99 115.877 168.663 75.9538 146.516 48.6377C123.528 20.2702 82.8898 10.9825 48.4708 19.1346C47.9666 19.22 47.5883 19.4294 47.1684 19.5982C40.15 20.6068 33.6776 23.3804 28.4669 29.7257C20.2305 39.7699 19.6418 54.7726 25.6933 66.1201Z" fill="#FFC244"/>
<path d="M15.397 63.5153L15.6075 64.0186L22.6259 81.5011C23.2562 82.5523 24.6014 82.8462 25.6516 82.2158L36.6617 75.4922C36.9138 75.3235 37.1243 75.114 37.2503 74.9036C37.8807 74.0201 37.6703 72.802 36.8304 72.0873L20.8609 60.1104L16.2795 61.2023L15.397 63.5153Z" fill="#FFC244" stroke="#272726" stroke-width="1.55556" stroke-miterlimit="10" stroke-linecap="round" stroke-linejoin="round"/>
<path d="M12.4557 56.9585L16.3223 54.5631L18.1707 57.5889L14.3051 59.9416L12.4557 56.9585Z" fill="white" stroke="#272726" stroke-width="1.55556" stroke-miterlimit="10" stroke-linecap="round" stroke-linejoin="round"/>
<path d="M18.5072 58.3037L17.6237 57.0002" stroke="#272726" stroke-width="1.55556" stroke-miterlimit="10" stroke-linecap="round" stroke-linejoin="round"/>
<path d="M14.2207 60.152H14.3051L18.2133 57.7567H18.2967C18.675 57.4628 19.2636 57.6306 19.5575 58.0932L20.6087 59.8582C20.9026 60.2364 20.7348 60.8251 20.2722 61.1189L16.1952 63.557C15.818 63.8509 15.2293 63.6831 14.9345 63.2195L13.8842 61.4555C13.7807 61.2328 13.7577 60.9812 13.819 60.7435C13.8804 60.5058 14.0224 60.2967 14.2207 60.152Z" fill="white" stroke="#272726" stroke-width="1.55556" stroke-miterlimit="10" stroke-linecap="round" stroke-linejoin="round"/>
<path fill-rule="evenodd" clip-rule="evenodd" d="M10.5219 50.1496L14.9771 47.4604L15.3544 47.1666L18.9281 44.939C19.7262 44.4764 20.7765 44.6868 21.3652 45.5276L22.1216 46.7884C22.5832 47.5865 22.3737 48.6368 21.5756 49.0994L20.5243 49.7297C20.6931 49.9819 20.8182 50.1079 20.9443 50.2757C22.0372 51.7469 23.3396 53.0493 23.7605 53.2181C23.8866 53.3025 23.97 53.2598 24.0544 53.3442C24.7691 53.7214 25.063 54.5622 24.6847 55.2769C24.5587 55.4874 24.4326 55.6969 24.1805 55.8656C23.9283 56.0344 23.5918 56.1178 23.2979 55.9917C22.1684 55.8303 21.0826 55.4445 20.1044 54.857C19.348 54.3944 18.5915 53.9328 18.0029 53.3442L10.3541 58.0089C9.72375 58.3454 8.92463 58.1776 8.63079 57.5889C7.11792 55.0675 7.95873 51.6625 10.5219 50.1496Z" fill="white" stroke="#272726" stroke-width="1.55556" stroke-miterlimit="10" stroke-linecap="round" stroke-linejoin="round"/>
<path d="M26.7436 52.7137L29.3078 43.0051L39.2248 44.8972L26.7436 52.7137Z" fill="#FFC244" stroke="#272726" stroke-width="1.55556" stroke-miterlimit="10" stroke-linecap="round" stroke-linejoin="round"/>
<path d="M29.3078 43.0061L39.6874 37.2068L49.2273 39.1823L39.2258 44.8972L29.3078 43.0061Z" fill="#EEC050"/>
<path d="M29.3078 43.0061L39.6874 37.2068L49.2273 39.1823L39.2258 44.8972L29.3078 43.0061Z" fill="#FFC244" stroke="#272726" stroke-width="1.55556" stroke-miterlimit="10" stroke-linecap="round" stroke-linejoin="round"/>
<path d="M28.9712 42.9644L26.4925 39.6438L36.7878 34.0549L39.3519 37.2068L28.9712 42.9644Z" fill="white" stroke="#272726" stroke-width="1.55556" stroke-miterlimit="10" stroke-linecap="round" stroke-linejoin="round"/>
<path d="M44.101 52.6294L39.2258 44.8962" stroke="#343434" stroke-width="0.51819" stroke-miterlimit="10"/>
<path d="M44.1 52.6294L39.2258 44.8962L26.7436 52.7138L31.3666 60.1094L43.9739 79.9038L56.3301 72.0456L44.1 52.6294Z" fill="white" stroke="#272726" stroke-width="1.55556" stroke-miterlimit="10" stroke-linecap="round" stroke-linejoin="round"/>
<path d="M52.3791 68.9354L43.0924 54.2266L49.7316 50.2756" stroke="white" stroke-width="0.624409" stroke-miterlimit="10" stroke-linecap="round" stroke-linejoin="round"/>
<path d="M63.0119 60.9939L54.0608 46.7466L49.2273 39.1823L39.2258 44.8972L44.1 52.6304L53.5982 67.8008L56.3301 72.0456L66.0387 65.7003L63.0119 60.9939Z" fill="white" stroke="#272726" stroke-width="1.55556" stroke-miterlimit="10" stroke-linecap="round" stroke-linejoin="round"/>
<path d="M64.1883 80.4925C63.8546 82.4488 62.7629 84.1946 61.1502 85.3512C59.5374 86.5077 57.5336 86.9816 55.5736 86.67C53.6173 86.3363 51.8715 85.2447 50.7149 83.6319C49.5584 82.0191 49.0845 80.0154 49.396 78.0554L55.1954 41.4942C55.5289 39.5377 56.6204 37.7916 58.2332 36.6349C59.846 35.4782 61.8499 35.0041 63.8101 35.3156C65.7666 35.6491 67.5127 36.7407 68.6694 38.3535C69.8261 39.9663 70.3002 41.9702 69.9886 43.9303L64.1883 80.4925Z" fill="white" stroke="#272726" stroke-width="1.55556" stroke-miterlimit="10" stroke-linecap="round" stroke-linejoin="round"/>
<path d="M63.684 44.519C61.4574 47.2926 57.8846 48.7211 54.1441 48.0908L63.684 44.519Z" fill="white"/>
<path d="M63.684 44.519C61.4574 47.2926 57.8846 48.7211 54.1441 48.0908" stroke="#272726" stroke-width="1.55556" stroke-miterlimit="10" stroke-linecap="round" stroke-linejoin="round"/>
<path d="M62.3389 53.2607C60.1123 56.0343 56.5405 57.4628 52.799 56.8325L62.3389 53.2607Z" fill="white"/>
<path d="M62.3389 53.2607C60.1123 56.0343 56.5405 57.4628 52.799 56.8325" stroke="#272726" stroke-width="1.55556" stroke-miterlimit="10" stroke-linecap="round" stroke-linejoin="round"/>
<path d="M89.2361 117.222L44.8574 132.478L31.1572 65.9524L72.0892 60.1521L89.2361 117.222Z" fill="white"/>
<path d="M89.2361 117.222L44.8574 132.478L31.1572 65.9524L72.0892 60.1521L89.2361 117.222Z" stroke="#272726" stroke-width="1.55556" stroke-miterlimit="10" stroke-linecap="round" stroke-linejoin="round"/>
<path d="M44.8574 132.477L25.3578 131.09L16.9526 73.9784L31.1572 65.9514L44.8574 132.477Z" fill="white"/>
<path d="M44.8574 132.477L25.3578 131.09L16.9526 73.9784L31.1572 65.9514L44.8574 132.477Z" stroke="#272726" stroke-width="1.55556" stroke-miterlimit="10" stroke-linecap="round" stroke-linejoin="round"/>
<path d="M83.4785 90.9148L81.5874 91.4191L76.5444 92.8059L72.7196 93.8145C71.8371 92.5538 70.072 91.3347 67.4245 92.1339C65.5751 92.6381 64.3571 94.2771 64.3144 96.0421L57.7586 97.8071L61.8773 113.188L78.7294 108.691L85.6217 106.843H85.6634C86.7137 106.548 87.3023 105.456 87.0085 104.405C86.7137 103.354 85.6634 102.724 84.6548 102.976L86.4615 102.514C87.345 102.261 88.0171 101.463 88.0171 100.539C87.9744 99.2356 86.7137 98.3531 85.5373 98.648C86.0431 98.5028 86.4736 98.1687 86.7397 97.7148C87.0058 97.2609 87.0871 96.7221 86.9668 96.2099C86.8217 95.7041 86.4876 95.2736 86.0337 95.0075C85.5798 94.7414 85.0409 94.6601 84.5287 94.7804C85.0343 94.6353 85.4646 94.3013 85.7307 93.8476C85.9968 93.394 86.0783 92.8554 85.9582 92.3433C85.6207 91.2513 84.5287 90.621 83.4785 90.9148Z" fill="white" stroke="#272726" stroke-width="1.55556" stroke-miterlimit="10" stroke-linecap="round" stroke-linejoin="round"/>
<path d="M85.4529 102.724L79.7796 104.363M85.7468 98.5219L78.8137 100.496M84.486 94.7814L77.7625 96.6725" stroke="#272726" stroke-width="1.55556" stroke-miterlimit="10" stroke-linecap="round" stroke-linejoin="round"/>
<path d="M60.6582 96.336C59.8601 96.336 59.062 96.4204 58.2629 96.6299C39.9823 101.548 32.0814 101.422 29.0556 100.917C29.0556 100.917 19.6418 100.203 18.5489 84.8634C18.2967 85.1989 15.3554 88.856 13.4643 92.6799C9.30385 101.296 11.0689 107.263 13.2955 110.708C16.5744 115.794 22.6676 118.483 31.3666 118.652H32.4596C40.0657 118.652 49.9837 116.97 62.7598 113.566C63.3741 113.398 63.9665 113.158 64.5248 112.852C64.8186 108.943 64.231 103.061 60.6582 96.336Z" fill="#FFC244" stroke="#272726" stroke-width="1.55556" stroke-miterlimit="10" stroke-linecap="round" stroke-linejoin="round"/>
<path d="M74.8211 93.2268L69.6521 94.8231" stroke="#272726" stroke-width="1.55556" stroke-miterlimit="10" stroke-linecap="round" stroke-linejoin="round"/>
<path d="M58.9349 111.591C59.2384 111.591 59.5389 111.531 59.8193 111.415C60.0998 111.299 60.3546 111.129 60.5692 110.914C60.7838 110.7 60.9541 110.445 61.0703 110.165C61.1865 109.884 61.2464 109.584 61.2464 109.28C61.2465 108.977 61.1868 108.676 61.0707 108.396C60.9546 108.115 60.7845 107.861 60.5699 107.646C60.3553 107.431 60.1006 107.261 59.8203 107.145C59.5399 107.029 59.2394 106.969 58.9359 106.969C58.323 106.969 57.7352 107.212 57.3018 107.646C56.8684 108.079 56.6249 108.667 56.6249 109.28C56.6249 109.893 56.8684 110.48 57.3018 110.914C57.7352 111.347 58.322 111.591 58.9349 111.591Z" fill="white"/>
<path d="M58.9349 107.851C59.3235 107.856 59.6949 108.012 59.9697 108.287C60.2446 108.562 60.4012 108.933 60.4061 109.322C60.4015 109.71 60.2451 110.081 59.9704 110.356C59.6957 110.631 59.3245 110.788 58.9359 110.793C58.5472 110.788 58.1757 110.632 57.9008 110.357C57.6259 110.082 57.4694 109.71 57.4647 109.322C57.4647 108.482 58.1368 107.851 58.9349 107.851ZM58.9349 106.17C58.5209 106.169 58.1109 106.25 57.7283 106.409C57.3457 106.567 56.9981 106.799 56.7054 107.092C56.4127 107.385 56.1807 107.732 56.0226 108.115C55.8645 108.497 55.7834 108.908 55.7841 109.322C55.7834 109.736 55.8645 110.146 56.0227 110.528C56.1808 110.911 56.413 111.259 56.7058 111.552C56.9986 111.844 57.3463 112.077 57.729 112.235C58.1117 112.393 58.5218 112.474 58.9359 112.473C59.351 112.477 59.7627 112.399 60.1469 112.242C60.5312 112.085 60.8803 111.853 61.1738 111.559C61.4673 111.266 61.6993 110.917 61.8562 110.533C62.0131 110.148 62.0919 109.737 62.0877 109.322C62.0884 108.907 62.0073 108.497 61.8492 108.115C61.691 107.732 61.4589 107.384 61.1661 107.091C60.8732 106.799 60.5255 106.566 60.1428 106.408C59.7601 106.25 59.349 106.169 58.9349 106.17Z" fill="#272726"/>
<path d="M50.6985 4.42682L61.7929 14.0927C65.0291 17.0351 67.7193 20.6069 70.1981 24.2213C72.9491 28.1917 76.1818 31.8055 79.8223 34.9802L103.061 55.2779C104.28 56.3699 106.172 56.2448 107.265 54.9841L109.87 52C110.962 50.781 110.836 48.8899 109.576 47.7979L86.3364 27.4992C82.7023 24.332 78.6937 21.6222 74.4002 19.4305C70.4919 17.455 66.6264 15.2701 63.2224 12.4538L52.1687 2.78787C51.7061 2.41065 51.034 2.45234 50.6558 2.91395C50.2349 3.33485 50.2786 4.0486 50.6985 4.42682Z" fill="white"/>
<path d="M89.529 40.3586L81.4186 33.2568C80.8309 32.7525 80.7882 31.9117 81.2925 31.323L83.3524 28.9703C83.8567 28.3817 84.6965 28.339 85.2852 28.8443L93.3955 35.946C93.9842 36.4503 94.0269 37.2912 93.5216 37.8788L91.4627 40.2325C90.9585 40.7785 90.1176 40.8629 89.529 40.3586Z" fill="#FFC244" stroke="#272726" stroke-width="1.55556" stroke-miterlimit="10" stroke-linecap="round" stroke-linejoin="round"/>
<path d="M97.5142 46.2423C96.9409 46.2461 96.3867 46.0362 95.9597 45.6537L95.4971 45.2338C94.4885 44.3512 94.4051 42.8384 95.2876 41.8715L95.7075 41.4099C95.9353 41.1569 96.2141 40.9549 96.5254 40.8171C96.8368 40.6794 97.1738 40.6091 97.5142 40.6107C98.1029 40.6107 98.6489 40.8212 99.0698 41.1994L99.5314 41.6193C99.994 42.0402 100.288 42.6289 100.331 43.2583C100.372 43.8896 100.162 44.519 99.7419 44.9816L99.3219 45.4442C98.8593 45.9485 98.228 46.2423 97.5142 46.2423Z" fill="#EEC050"/>
<path d="M97.4725 41.4089C97.8508 41.4089 98.1873 41.535 98.4811 41.7871L98.9437 42.208C99.5741 42.754 99.6585 43.7626 99.1125 44.393L98.6916 44.8556C98.3968 45.1921 97.9768 45.4016 97.5142 45.4016C97.137 45.4016 96.7995 45.2755 96.5057 45.0243L96.0441 44.6034C95.4137 44.0574 95.3293 43.0479 95.8753 42.4175L96.2962 41.9559C96.59 41.6194 97.0526 41.4089 97.4725 41.4089ZM97.4725 39.7283C96.5483 39.7283 95.6658 40.1482 95.0355 40.8202L94.6146 41.2828C94.0561 41.9358 93.7704 42.7786 93.8164 43.6365C93.8581 44.4774 94.279 45.2755 94.9084 45.8642L95.371 46.2841C95.9551 46.7904 96.6996 47.0735 97.4725 47.0832C98.3968 47.0832 99.2793 46.6623 99.9096 45.9902L100.331 45.5276C100.877 44.8973 101.17 44.0564 101.129 43.1749C101.087 42.2914 100.666 41.535 100.037 40.9473L99.5741 40.5264C98.9899 40.0204 98.2454 39.7376 97.4725 39.7283Z" fill="#272726"/>
<path d="M104.995 56.7898C104.073 56.7848 103.181 56.4583 102.474 55.8665L98.1029 52.0417C97.9399 51.8941 97.8402 51.6893 97.8245 51.4699C97.8088 51.2506 97.8783 51.0337 98.0185 50.8643L104.533 43.3843C104.609 43.2915 104.706 43.2169 104.815 43.1659C104.924 43.1149 105.043 43.0888 105.163 43.0895C105.373 43.0895 105.541 43.1739 105.709 43.2999L110.08 47.1248C111.677 48.5116 111.803 50.907 110.458 52.5033L107.853 55.4873C107.5 55.8987 107.061 56.2283 106.568 56.4534C106.074 56.6785 105.538 56.7926 104.995 56.7898Z" fill="#FFC244"/>
<path d="M105.206 43.973L109.576 47.7969C110.161 48.3219 110.519 49.054 110.574 49.8382C110.629 50.6225 110.377 51.3975 109.87 51.999L107.265 54.9831C106.988 55.3024 106.646 55.558 106.262 55.7322C105.877 55.9063 105.459 55.9948 105.037 55.9916C104.329 55.9846 103.646 55.7319 103.104 55.2769L98.7333 51.453L105.206 43.973ZM105.206 42.2914H105.08C104.638 42.3296 104.23 42.5413 103.944 42.8801L97.4308 50.3184C96.8005 51.0331 96.8849 52.0834 97.5986 52.6711L101.969 56.4959C102.809 57.2524 103.902 57.6306 105.037 57.6306C105.699 57.6293 106.352 57.4861 106.954 57.2107C107.556 56.9354 108.092 56.5342 108.525 56.0343L111.131 53.0503C111.935 52.1213 112.342 50.9141 112.266 49.688C112.225 49.0763 112.063 48.4788 111.789 47.9305C111.514 47.3821 111.134 46.894 110.669 46.4945L106.298 42.6696C106.004 42.4175 105.626 42.2914 105.206 42.2914Z" fill="#272726"/>
<path d="M51.4549 2.53575C51.7071 2.53575 51.9592 2.62012 52.1697 2.78789L63.2224 12.4538C66.5837 15.2691 70.4919 17.4124 74.4002 19.4295C78.6933 21.6213 82.7016 24.3311 86.3354 27.4982L109.576 47.7969C110.161 48.3219 110.519 49.054 110.574 49.8383C110.629 50.6226 110.377 51.3975 109.87 51.999L107.265 54.9831C106.988 55.3025 106.646 55.5581 106.262 55.7322C105.877 55.9064 105.459 55.9949 105.037 55.9917C104.329 55.9846 103.646 55.732 103.104 55.2769L79.864 34.9792C76.2259 31.8025 72.9934 28.1893 70.2398 24.2213C67.761 20.6069 65.0708 17.0768 61.8356 14.0928L50.7402 4.42684C50.5363 4.22402 50.4149 3.95277 50.3995 3.66559C50.3841 3.37842 50.4757 3.09573 50.6568 2.87227C50.8662 2.66182 51.1611 2.53575 51.4549 2.53575ZM51.4549 0.855103C50.6568 0.855103 49.9003 1.19064 49.3534 1.821C48.3875 2.95566 48.4709 4.67899 49.5638 5.68757L49.6055 5.72926L60.6582 15.3952C63.8527 18.3376 66.4576 21.8676 68.8113 25.2289C71.6354 29.306 74.9527 33.0184 78.6877 36.2816L101.927 56.5804C102.768 57.3368 103.861 57.715 104.995 57.715C105.657 57.7136 106.311 57.5703 106.913 57.2947C107.514 57.0192 108.05 56.6179 108.484 56.1178L111.088 53.1337C111.893 52.2055 112.3 50.9983 112.223 49.7724C112.183 49.1606 112.021 48.5629 111.747 48.0144C111.473 47.4659 111.092 46.9776 110.627 46.5779L87.3867 26.2802C83.6516 23.0154 79.5303 20.2209 75.1149 17.9593C71.4588 16.1099 67.6349 14.0084 64.2727 11.1931L53.2199 1.52716L53.1782 1.48547C52.7573 1.06456 52.127 0.855103 51.4549 0.855103Z" fill="#272726"/>
<path d="M54.2702 5.85529L51.4966 3.41821" stroke="white" stroke-width="1.16642" stroke-miterlimit="10" stroke-linecap="round" stroke-linejoin="round"/>
<path d="M56.5395 5.43542L53.892 8.3768M86.7137 23.17L86.672 20.7746M91.0011 25.1455L92.7235 21.8676M93.8581 28.8443L95.5815 27.121M98.0185 31.8284L100.877 30.104" stroke="#272726" stroke-width="1.55556" stroke-miterlimit="10" stroke-linecap="round" stroke-linejoin="round"/>
<path d="M114.552 82.8909C119.369 80.9968 122.497 77.4837 121.537 75.0426C120.578 72.6016 115.894 72.1578 111.078 74.0509C106.26 75.944 103.133 79.4581 104.092 81.8992C105.052 84.3402 109.734 84.784 114.552 82.8909Z" fill="white" stroke="#272726" stroke-width="1.55556" stroke-miterlimit="10" stroke-linecap="round" stroke-linejoin="round"/>
<path d="M153.523 85.0331L120.485 73.9714L116.189 86.8041L149.227 97.8647L153.523 85.0331Z" fill="#EEC050" stroke="#272726" stroke-width="1.55556" stroke-miterlimit="10" stroke-linecap="round" stroke-linejoin="round"/>
<path d="M158.716 100.27C160.8 98.6778 159.94 94.0528 156.796 89.941C153.652 85.8293 149.415 83.7873 147.331 85.3806C145.248 86.9738 146.108 91.5988 149.251 95.7096C152.395 99.8214 156.633 101.863 158.716 100.27ZM124.294 68.461C126.074 67.8574 126.551 64.517 125.359 61.0008C124.166 57.4837 121.756 55.1221 119.976 55.7256C118.195 56.3292 117.719 59.6696 118.911 63.1868C120.104 66.7029 122.513 69.0645 124.294 68.461Z" fill="white" stroke="#272726" stroke-width="1.55556" stroke-miterlimit="10" stroke-linecap="round" stroke-linejoin="round"/>
<path d="M131.41 60.5491C132.645 57.0478 132.21 53.7014 130.437 53.076C128.664 52.4506 126.225 54.7825 124.99 58.2847C123.754 61.786 124.19 65.1324 125.963 65.7578C127.736 66.3832 130.174 64.0513 131.41 60.5491Z" fill="white" stroke="#272726" stroke-width="1.55556" stroke-miterlimit="10" stroke-linecap="round" stroke-linejoin="round"/>
<path d="M120.082 73.4325C121.385 73.1376 122.184 71.8342 121.889 70.5328C121.805 70.1184 121.601 69.7381 121.301 69.4398C122.436 69.0189 123.108 67.8009 122.856 66.5818C122.562 65.2794 121.259 64.4803 119.956 64.7751C119.842 64.8102 119.729 64.8523 119.62 64.9012C119.62 64.6907 119.62 64.4803 119.578 64.2281C119.284 62.9257 117.981 62.1276 116.678 62.4214C115.544 62.6736 114.787 63.7238 114.787 64.8168C114.409 64.7324 114.031 64.6907 113.611 64.8168C112.307 65.1106 111.509 66.4141 111.803 67.7165C112.014 68.6 112.686 69.2294 113.485 69.4815C112.854 70.0702 112.56 70.9527 112.77 71.7925C113.064 73.0959 114.367 73.8941 115.67 73.5992C116.468 73.3908 117.098 72.8438 117.393 72.13C117.855 73.0959 118.989 73.6846 120.082 73.4315V73.4325ZM152.61 88.5612C153.209 88.4208 153.775 88.1637 154.274 87.8046C154.774 87.4455 155.198 86.9915 155.522 86.4684C155.846 85.9454 156.063 85.3637 156.162 84.7565C156.261 84.1492 156.24 83.5285 156.098 82.9296C155.888 82.0898 155.51 81.375 154.963 80.8291C157.149 80.0299 158.494 77.6772 157.905 75.3652C157.765 74.7662 157.508 74.2008 157.149 73.7012C156.789 73.2017 156.335 72.7778 155.812 72.4538C155.289 72.1298 154.708 71.9121 154.1 71.8131C153.493 71.7141 152.872 71.7358 152.274 71.8769C152.042 71.9216 151.817 71.9922 151.602 72.0873C151.602 71.6674 151.602 71.2465 151.475 70.8266C151.335 70.2276 151.078 69.6622 150.719 69.1626C150.36 68.663 149.906 68.2391 149.383 67.9152C148.86 67.5912 148.278 67.3735 147.671 67.2745C147.063 67.1755 146.443 67.1972 145.844 67.3383C144.804 67.5796 143.878 68.1701 143.22 69.0113C142.562 69.8525 142.213 70.8936 142.229 71.9613C141.516 71.7925 140.758 71.7508 140.002 71.9196C139.403 72.06 138.838 72.3171 138.338 72.6761C137.839 73.0351 137.415 73.4891 137.091 74.012C136.767 74.535 136.55 75.1166 136.451 75.7237C136.352 76.3308 136.373 76.9515 136.514 77.5502C136.893 79.2318 138.195 80.4925 139.75 80.9551C138.573 82.0471 137.985 83.7704 138.406 85.4521C138.546 86.051 138.803 86.6165 139.162 87.116C139.521 87.6155 139.975 88.0393 140.498 88.3632C141.021 88.6871 141.603 88.9047 142.21 89.0036C142.818 89.1025 143.438 89.0807 144.037 88.9394C145.592 88.5622 146.811 87.4682 147.315 86.0814C148.281 88.0152 150.424 89.1072 152.61 88.5612Z" fill="#FFC244" stroke="#272726" stroke-width="1.55556" stroke-miterlimit="10" stroke-linecap="round" stroke-linejoin="round"/>
<path d="M121.007 75.6163C121.68 78.1378 124.284 79.6517 126.807 79.0213C127.611 78.8291 128.341 78.4053 128.907 77.8023C129.79 80.0299 132.185 81.2906 134.539 80.6603C137.06 79.9882 138.573 77.3824 137.943 74.8609C137.904 74.6222 137.818 74.3936 137.691 74.1878C138.111 74.1878 138.532 74.1461 138.993 74.0201C141.516 73.348 143.029 70.7422 142.398 68.2207C142.117 67.1768 141.49 66.2592 140.619 65.618C139.749 64.9768 138.687 64.6499 137.606 64.6907C137.775 63.9759 137.775 63.1778 137.565 62.4214C136.893 59.8999 134.287 58.387 131.765 59.0164C130.956 59.2269 130.218 59.6496 129.627 60.2409C129.036 60.8321 128.613 61.5705 128.403 62.3797C127.821 61.7802 127.09 61.3471 126.285 61.1255C125.479 60.9038 124.629 60.9015 123.823 61.1189C121.301 61.791 119.788 64.3968 120.419 66.9183C120.839 68.4729 121.973 69.6919 123.402 70.1962C121.469 71.2048 120.419 73.4324 121.007 75.6163Z" fill="#FFC244" stroke="#272726" stroke-width="1.55556" stroke-miterlimit="10" stroke-linecap="round" stroke-linejoin="round"/>
<path d="M136.682 131.09L101.465 119.324L109.912 84.9894L150.55 98.6053L136.682 131.09Z" fill="white" stroke="#272726" stroke-width="1.55556" stroke-miterlimit="10" stroke-linecap="round" stroke-linejoin="round"/>
<path d="M151.854 102.807L106.382 87.5942C106.054 87.4741 105.784 87.2332 105.628 86.9208C105.472 86.6084 105.441 86.2481 105.541 85.9136L106.971 81.6271C107.09 81.2988 107.331 81.0288 107.644 80.8724C107.956 80.7161 108.317 80.6853 108.651 80.7863L154.123 95.9994C154.795 96.2516 155.173 96.9663 154.963 97.6811L153.534 101.968C153.282 102.64 152.526 103.018 151.854 102.807ZM121.096 82.7767C122.59 81.6351 121.971 78.3175 119.716 75.3672C117.461 72.4178 114.421 70.9516 112.928 72.0932C111.434 73.2348 112.052 76.5524 114.308 79.5027C116.563 82.453 119.603 83.9183 121.096 82.7767Z" fill="white" stroke="#272726" stroke-width="1.55556" stroke-miterlimit="10" stroke-linecap="round" stroke-linejoin="round"/>
<path d="M125.562 85.8232C130.38 83.9292 133.507 80.416 132.548 77.9749C131.588 75.5339 126.905 75.0901 122.088 76.9832C117.271 78.8763 114.143 82.3905 115.103 84.8315C116.062 87.2726 120.745 87.7163 125.562 85.8232ZM147.002 90.8572C149.086 89.2639 148.226 84.6389 145.082 80.5272C141.939 76.4154 137.702 74.3744 135.618 75.9667C133.534 77.56 134.394 82.185 137.538 86.2968C140.682 90.4085 144.919 92.4495 147.002 90.8572ZM131.976 71.4569C132.812 71.4569 133.614 71.1247 134.205 70.5336C134.796 69.9424 135.128 69.1406 135.128 68.3045C135.128 67.4685 134.796 66.6667 134.205 66.0755C133.614 65.4843 132.812 65.1522 131.976 65.1522C131.14 65.1522 130.338 65.4843 129.747 66.0754C129.156 66.6665 128.824 67.4681 128.824 68.304C128.824 69.14 129.156 69.9416 129.747 70.5327C130.338 71.1238 131.14 71.4569 131.976 71.4569ZM148.911 80.0715C149.33 80.0789 149.746 80.0029 150.135 79.8479C150.523 79.6929 150.877 79.4619 151.176 79.1686C151.475 78.8752 151.712 78.5253 151.874 78.1392C152.036 77.7532 152.119 77.3388 152.119 76.9202C152.119 76.5016 152.036 76.0872 151.874 75.7011C151.712 75.3151 151.475 74.9652 151.176 74.6718C150.877 74.3785 150.523 74.1475 150.135 73.9925C149.746 73.8375 149.33 73.7614 148.911 73.7689C148.075 73.7689 147.274 74.1009 146.683 74.692C146.092 75.2831 145.759 76.0848 145.759 76.9207C145.759 77.7566 146.092 78.5583 146.683 79.1494C147.274 79.7405 148.075 80.0715 148.911 80.0715Z" fill="white" stroke="#272726" stroke-width="1.55556" stroke-miterlimit="10" stroke-linecap="round" stroke-linejoin="round"/>
</g>
<defs>
<clipPath id="clip0_1_155">
<rect width="168.759" height="136" fill="white" transform="translate(0.93042 0.310059)"/>
</clipPath>
</defs>
</svg>
