<svg width="171" height="137" viewBox="0 0 171 137" fill="none" xmlns="http://www.w3.org/2000/svg">
<g clip-path="url(#clip0_1_85)">
<path d="M168.843 91.2234C166.838 84.6705 163.049 78.9657 158.903 73.6621C151.817 64.6135 148.473 58.3285 146.334 46.8732C140.227 14.1561 106.128 -4.60911 74.1692 2.65642C36.193 11.2592 22.1077 51.6421 39.5366 84.6271C57.6327 118.859 98.0156 136.867 135.503 135.44C136.037 135.44 136.483 135.307 136.973 135.218C144.462 135.619 151.772 134.059 158.502 128.487C169.111 119.751 172.811 104.239 168.843 91.2234Z" fill="#FFC244"/>
<path d="M142.589 67.5549L107.689 74.5081V20.797L142.813 30.7815C143.806 30.974 144.701 31.5066 145.343 32.2877C145.986 33.0688 146.337 34.0496 146.334 35.0612V63.2318C146.334 64.2822 145.955 65.2974 145.268 66.0914C144.58 66.8854 143.629 67.4049 142.589 67.5549Z" fill="white" stroke="#222221" stroke-width="1.64663" stroke-miterlimit="10" stroke-linecap="round" stroke-linejoin="round"/>
<path d="M118.297 37.5123L135.725 42.5046V53.2917L118.297 56.7688V37.5123ZM72.7875 67.5549L107.689 74.5081V20.797L72.5651 27.083C71.572 27.2753 70.6771 27.8077 70.0343 28.5887C69.3915 29.3696 69.0412 30.3502 69.0435 31.3617V63.2762C68.999 65.4161 70.6032 67.2426 72.7875 67.5549Z" fill="white" stroke="#222221" stroke-width="1.64663" stroke-miterlimit="10" stroke-linecap="round" stroke-linejoin="round"/>
<path d="M81.0779 68.9821L93.8714 71.5222V53.8264C93.8714 52.7125 92.9789 51.7765 91.8205 51.731L80.9445 51.4197C80.58 51.4865 80.2507 51.6796 80.0143 51.9649C79.7779 52.2503 79.6496 52.6098 79.6517 52.9803V67.3769C79.6962 68.224 80.2764 68.8931 81.0779 68.9821Z" fill="white" stroke="#222221" stroke-width="1.64663" stroke-miterlimit="10" stroke-linecap="round" stroke-linejoin="round"/>
<path d="M71.4947 26.0571L57.187 41.6141L67.0381 41.2128L80.5432 24.7198L71.4947 26.0571Z" fill="#FFC244" stroke="#222221" stroke-width="1.64663" stroke-miterlimit="10" stroke-linecap="round" stroke-linejoin="round"/>
<path d="M80.5432 24.7198L67.0391 41.2128L76.9781 40.8115L89.5917 23.428L80.5432 24.7198ZM107.689 20.798L98.6403 22.0908L86.7838 40.4547L96.9017 40.009L107.689 20.798Z" fill="white" stroke="#222221" stroke-width="1.64663" stroke-miterlimit="10" stroke-linecap="round" stroke-linejoin="round"/>
<path d="M89.5917 23.4281L76.9781 40.8116L86.7838 40.4548L98.6403 22.0908L89.5917 23.4281Z" fill="#FFC244" stroke="#222221" stroke-width="1.64663" stroke-miterlimit="10" stroke-linecap="round" stroke-linejoin="round"/>
<path d="M103.365 4.92968L74.7039 11.3037C73.8139 11.4321 72.9998 11.8766 72.4105 12.5559C71.8212 13.2352 71.4961 14.1039 71.4947 15.0032V26.1026L107.644 20.7525V8.62916C107.689 6.3559 105.638 4.61736 103.365 4.92968Z" fill="white" stroke="#222221" stroke-width="1.64663" stroke-miterlimit="10" stroke-linecap="round" stroke-linejoin="round"/>
<path d="M136.439 81.8191C135.837 81.8165 135.26 81.5762 134.834 81.1504C134.408 80.7247 134.168 80.148 134.165 79.5459V72.7261C134.165 72.5917 134.076 72.5027 133.943 72.5027H133.675L125.83 71.5223C125.74 71.5667 125.652 71.6557 125.652 71.7446V78.6534C125.649 79.2555 125.409 79.8322 124.983 80.2579C124.557 80.6837 123.98 80.924 123.378 80.9266C122.776 80.924 122.199 80.6837 121.774 80.2579C121.348 79.8322 121.108 79.2555 121.105 78.6534V71.7446C121.105 69.1156 123.245 66.9313 125.919 66.9313H126.186L134.121 67.9562C136.706 68.0452 138.756 70.185 138.756 72.7696V79.5894C138.756 80.7932 137.731 81.8191 136.439 81.8191Z" fill="#FFC244" stroke="#222221" stroke-width="1.64663" stroke-miterlimit="10" stroke-linecap="round" stroke-linejoin="round"/>
<path d="M149.276 80.6152C148.673 80.6126 148.097 80.3723 147.671 79.9465C147.245 79.5208 147.005 78.9441 147.002 78.342V71.5222C147.002 71.3888 146.913 71.2988 146.78 71.2988H146.512L138.667 70.3184C138.578 70.3628 138.488 70.4518 138.488 70.5417V77.3615C138.486 77.9636 138.246 78.5403 137.82 78.9661C137.394 79.3918 136.817 79.6322 136.215 79.6348C135.613 79.6322 135.036 79.3918 134.611 78.9661C134.185 78.5403 133.945 77.9636 133.942 77.3615V70.4528C133.942 67.8227 136.082 65.6384 138.756 65.6384H139.024L146.958 66.6634C149.543 66.7523 151.593 68.8922 151.593 71.4767V78.2965C151.549 79.5893 150.524 80.6152 149.276 80.6152Z" fill="#FFC244" stroke="#222221" stroke-width="1.64663" stroke-miterlimit="10" stroke-linecap="round" stroke-linejoin="round"/>
<path d="M162.737 126.571L125.385 130.137L127.168 75.8909L160.063 79.0102L162.737 126.571ZM125.385 130.137L110.497 125.411L114.642 79.4569L127.168 75.8909L125.385 130.137ZM63.2042 128.666C63.7834 132.098 69.2659 134.059 75.462 133.078C81.6581 132.053 86.2491 128.443 85.7144 125.011L83.9313 114.045L61.4212 117.7L63.2042 128.666Z" fill="white"/>
<path d="M125.385 130.137L162.737 126.571L160.063 79.0102L127.168 75.8909M125.385 130.137L127.168 75.8909M125.385 130.137L110.497 125.411L114.642 79.4569L127.168 75.8909M63.2042 128.666C63.7834 132.098 69.2659 134.059 75.462 133.078C81.6581 132.053 86.2491 128.443 85.7144 125.011L83.9313 114.045L61.4212 117.7L63.2042 128.666Z" stroke="#222221" stroke-width="1.64663" stroke-miterlimit="10" stroke-linecap="round" stroke-linejoin="round"/>
<path d="M71.1833 106.779C54.468 109.498 39.848 105.843 37.6637 98.5779C37.7081 99.2025 37.7971 99.8707 37.9305 100.495C40.7395 117.834 57.097 129.646 74.4805 126.793C91.8205 123.985 103.633 107.626 100.779 90.243C100.682 89.6151 100.563 88.9907 100.423 88.371C100.646 95.9478 87.9422 104.06 71.1833 106.779Z" fill="white" stroke="#222221" stroke-width="1.64663" stroke-miterlimit="10" stroke-linecap="round" stroke-linejoin="round"/>
<path d="M100.334 87.5239C100.196 86.761 99.9405 86.0241 99.5763 85.3396C99.8886 86.3201 100.2 87.346 100.423 88.4154C100.379 88.1031 100.379 87.7917 100.334 87.5239ZM37.4848 97.7308C37.5293 97.9987 37.6192 98.311 37.7082 98.5779C37.6192 97.5084 37.5303 96.439 37.5303 95.4131C37.3592 96.175 37.3437 96.9627 37.4848 97.7308Z" fill="white" stroke="#222221" stroke-width="1.64663" stroke-miterlimit="10" stroke-linecap="round" stroke-linejoin="round"/>
<path d="M71.1833 106.779C87.8977 104.06 100.601 95.9488 100.379 88.371C100.155 87.346 99.8441 86.3201 99.5318 85.2952C96.0102 78.9211 82.2373 75.8908 66.5913 78.4309C50.9464 80.971 38.823 88.2375 37.4857 95.3686C37.4857 96.4391 37.5302 97.464 37.6637 98.5334C39.848 105.843 54.468 109.498 71.1833 106.779Z" fill="white" stroke="#222221" stroke-width="1.64663" stroke-miterlimit="10" stroke-linecap="round" stroke-linejoin="round"/>
<path d="M71.1833 106.779C54.468 109.498 39.848 105.843 37.6637 98.5779C37.7081 99.2025 37.7971 99.8707 37.9305 100.495C40.7395 117.834 57.097 129.646 74.4805 126.793C91.8205 123.985 103.633 107.626 100.779 90.243C100.682 89.6151 100.563 88.9907 100.423 88.371C100.646 95.9478 87.9422 104.06 71.1833 106.779Z" stroke="#222221" stroke-width="1.64663" stroke-miterlimit="10" stroke-linecap="round" stroke-linejoin="round"/>
<path d="M81.0779 75.8464C75.5065 72.6816 66.7702 77.5394 61.5546 86.7224C58.3908 92.2938 60.3073 99.336 65.8787 102.501C71.4502 105.666 78.4933 103.749 81.6581 98.1776C86.8727 88.9957 86.6494 79.0111 81.0779 75.8464Z" fill="white" stroke="#222221" stroke-width="1.64663" stroke-miterlimit="10" stroke-linecap="round" stroke-linejoin="round"/>
<path d="M71.3612 98.8458C72.9335 98.8458 74.4414 98.2212 75.5531 97.1094C76.6649 95.9977 77.2895 94.4898 77.2895 92.9175C77.2895 91.3452 76.6649 89.8374 75.5531 88.7256C74.4414 87.6138 72.9335 86.9893 71.3612 86.9893C69.789 86.9893 68.2811 87.6138 67.1693 88.7256C66.0576 89.8374 65.433 91.3452 65.433 92.9175C65.433 94.4898 66.0576 95.9977 67.1693 97.1094C68.2811 98.2212 69.789 98.8458 71.3612 98.8458Z" fill="#FFC244" stroke="#222221" stroke-width="1.64663" stroke-miterlimit="10" stroke-linecap="round" stroke-linejoin="round"/>
<path d="M96.2781 77.8972C90.7066 74.7314 81.9694 79.5902 76.7548 88.7722C75.3017 91.3215 74.8708 94.3274 75.5493 97.1821C76.2279 100.037 77.9651 102.527 80.4098 104.15C80.6322 104.284 80.8555 104.417 81.0334 104.552C86.6059 107.716 93.648 105.799 96.8128 100.227C97.3475 99.2915 97.7933 98.4 98.1945 97.464C101.983 89.129 101.27 80.7486 96.2771 77.8962L96.2781 77.8972Z" fill="white" stroke="#222221" stroke-width="1.64663" stroke-miterlimit="10" stroke-linecap="round" stroke-linejoin="round"/>
<path d="M86.5614 100.896C87.3463 100.906 88.1254 100.76 88.8534 100.467C89.5815 100.173 90.2441 99.7383 90.8027 99.1868C91.3613 98.6354 91.8049 97.9785 92.1076 97.2542C92.4103 96.53 92.5662 95.7529 92.5662 94.9679C92.5662 94.183 92.4103 93.4058 92.1076 92.6816C91.8049 91.9574 91.3613 91.3005 90.8027 90.749C90.2441 90.1976 89.5815 89.7626 88.8534 89.4692C88.1254 89.1759 87.3463 89.03 86.5614 89.0402C85.0025 89.0603 83.5143 89.6937 82.4191 90.8032C81.3238 91.9127 80.7097 93.4089 80.7097 94.9679C80.7097 96.5269 81.3238 98.0232 82.4191 99.1327C83.5143 100.242 85.0025 100.876 86.5614 100.896Z" fill="#FFC244" stroke="#222221" stroke-width="1.64663" stroke-miterlimit="10" stroke-linecap="round" stroke-linejoin="round"/>
<path d="M37.6646 98.5779C39.848 105.844 54.468 109.499 71.1833 106.78C87.8977 104.061 100.601 95.9478 100.379 88.371" stroke="#222221" stroke-width="1.64663" stroke-miterlimit="10" stroke-linecap="round" stroke-linejoin="round"/>
<path d="M50.724 106.824C50.724 106.824 48.2728 103.035 52.0168 100.584C55.7608 98.1332 60.2628 94.9229 60.2628 94.9229L55.7608 98.0877M39.759 101.876C39.759 101.876 38.2873 98.6224 42.6559 96.1713C47.0245 93.7201 53.5765 89.9307 53.5765 89.9307C53.5765 89.9307 57.7672 87.3906 60.2628 90.4654M43.1906 95.5031C42.7894 92.962 45.9096 92.4718 45.5084 89.9307C45.1071 87.3906 41.9878 87.9243 41.542 85.3842C41.1408 82.844 44.2601 82.3538 43.8598 79.8127C43.4585 77.2726 40.3382 77.8063 39.8924 75.2662C39.4912 72.7261 42.6105 72.2358 42.2102 69.6947M54.0222 88.4155C53.6209 85.8754 50.5006 86.4091 50.0549 83.869C49.6546 81.3289 52.7739 80.8377 52.3726 78.2975C51.9723 75.7574 48.852 76.2911 48.4063 73.751C48.005 71.2109 51.1243 70.7197 50.724 68.1796" stroke="#222221" stroke-width="1.64663" stroke-miterlimit="10" stroke-linecap="round" stroke-linejoin="round"/>
<path d="M55.5374 69.0711L7.48768 78.5634C5.79361 78.9202 4.14402 77.8063 3.7882 76.0678C3.4314 74.3737 4.5453 72.7251 6.28384 72.3683C6.32832 72.3683 6.41727 72.3238 6.46175 72.3238L55.0027 65.7709C55.9387 65.6375 56.7857 66.3056 56.8747 67.1971C57.0091 68.0886 56.4299 68.9367 55.5374 69.0691V69.0711ZM53.7988 62.8305L4.81314 63.0529C3.0746 63.0529 1.64838 61.6711 1.64838 59.9336C1.64838 58.194 3.03012 56.7678 4.76867 56.7678H4.94657L53.8443 59.4878C54.2933 59.5116 54.7145 59.7126 55.0152 60.0468C55.316 60.3809 55.4719 60.8209 55.4484 61.2699C55.404 62.1169 54.6459 62.8305 53.7988 62.8305Z" fill="white" stroke="#222221" stroke-width="1.64663" stroke-miterlimit="10" stroke-linecap="round" stroke-linejoin="round"/>
<path d="M143.169 24.7198L144.952 18.1234M150.702 30.1588L159.75 24.7643M152.262 39.3408L158.77 41.703" stroke="#222221" stroke-width="1.64663" stroke-miterlimit="10" stroke-linecap="round" stroke-linejoin="round"/>
<path d="M71.1833 106.78C54.468 109.499 39.848 105.844 37.6637 98.5779C37.7081 99.2025 37.7971 99.8707 37.9305 100.495C40.7395 117.834 57.098 129.646 74.4815 126.794C91.8205 123.985 103.633 107.626 100.78 90.2439C100.691 89.6193 100.557 88.9956 100.423 88.371C100.646 95.9488 87.9431 104.061 71.1833 106.78Z" fill="white" stroke="#222221" stroke-width="1.64663" stroke-miterlimit="10" stroke-linecap="round" stroke-linejoin="round"/>
<path d="M98.8637 105.799C99.1305 104.908 99.4428 104.017 99.6652 103.125C99.3529 103.125 99.0416 103.214 98.7292 103.437C89.993 109.455 81.2568 113.734 72.5651 115.16C63.7834 116.586 54.1121 115.249 43.8598 112.307C43.6019 112.222 43.3262 112.206 43.0601 112.26C42.794 112.315 42.547 112.439 42.3436 112.619V112.664C42.7449 113.556 43.0127 113.823 43.6809 114.536C44.1711 115.071 44.6613 115.606 45.1071 116.185C55.0027 118.815 64.408 119.93 73.0553 118.502C81.3902 117.165 89.7252 113.332 98.0611 107.894C98.328 107.136 98.6403 106.468 98.8637 105.799Z" fill="#FFC244"/>
<path d="M71.1833 106.78C54.468 109.499 39.848 105.844 37.6637 98.5779C37.7081 99.2025 37.7971 99.8707 37.9305 100.495C40.7395 117.834 57.098 129.646 74.4815 126.794C91.8205 123.985 103.633 107.626 100.78 90.2439C100.691 89.6193 100.557 88.9956 100.423 88.371C100.646 95.9488 87.9431 104.061 71.1833 106.78Z" stroke="#222221" stroke-width="1.64663" stroke-miterlimit="10" stroke-linecap="round" stroke-linejoin="round"/>
</g>
<defs>
<clipPath id="clip0_1_85">
<rect width="170" height="134.419" fill="white" transform="translate(0.660004 1.10071)"/>
</clipPath>
</defs>
</svg>
