<svg width="140" height="141" viewBox="0 0 140 141" fill="none" xmlns="http://www.w3.org/2000/svg">
<path fill-rule="evenodd" clip-rule="evenodd" d="M56.8172 135.461C41.5383 129.179 30.4475 110.894 25.197 91.4809C19.9545 72.0258 20.5651 51.4667 29.1806 40.3362C37.8109 29.2275 54.4372 27.5892 67.3678 29.2464C80.3004 30.9046 89.5225 35.8333 103.2 44.1142C116.87 52.4367 134.987 64.1531 137.068 79.0983C139.126 94.0614 125.113 112.247 108.359 124.172C91.6186 136.125 72.1099 141.769 56.8172 135.461Z" fill="#FFF3DA"/>
<path fill-rule="evenodd" clip-rule="evenodd" d="M80.0979 60.1247C85.1875 81.2071 72.2221 102.423 51.1397 107.511C30.0583 112.601 8.84184 99.6355 3.75319 78.5531C-1.33546 57.4717 11.6299 36.2552 32.7123 31.1666C53.7938 26.0779 75.0092 39.0433 80.0979 60.1247Z" fill="white" stroke="#1A1A1A" stroke-width="2.17844"/>
<path fill-rule="evenodd" clip-rule="evenodd" d="M60.1325 101.288L57.5152 101.947C57.1714 102.038 56.813 102.059 56.461 102.009C56.109 101.959 55.7704 101.839 55.4653 101.657C55.1601 101.475 54.8944 101.233 54.6838 100.947C54.4731 100.66 54.3218 100.335 54.2386 99.9891L54.2267 99.9375C54.0468 99.2452 54.1482 98.51 54.5088 97.8923C54.8694 97.2746 55.4597 96.8248 56.1509 96.641L56.2035 96.6281C56.6456 96.5108 57.0237 96.2242 57.2559 95.8302C57.4882 95.4363 57.556 94.9667 57.4447 94.5231L57.261 93.7626C56.9184 92.4579 57.7018 91.1016 59.0125 90.7858L59.0661 90.7729C60.764 90.336 61.7867 88.5885 61.3498 86.8907L58.9827 77.6606C58.8918 77.3012 58.7308 76.9633 58.5087 76.6665C58.2867 76.3696 58.0082 76.1196 57.6891 75.9308C57.3701 75.7421 57.0168 75.6183 56.6497 75.5667C56.2826 75.5151 55.9089 75.5367 55.5502 75.6301L55.4966 75.643C55.1372 75.7339 54.7993 75.8949 54.5025 76.1169C54.2056 76.3389 53.9556 76.6175 53.7668 76.9366C53.5781 77.2556 53.4544 77.6089 53.4027 77.976C53.3511 78.3431 53.3727 78.7167 53.4661 79.0755L53.7203 80.0138C54.0311 81.1874 53.3211 82.3868 52.1207 82.7046L52.0681 82.7165C50.8935 83.0282 49.695 82.3183 49.3773 81.1179L49.2641 80.6453C48.864 79.1033 47.2803 78.1809 45.7323 78.5542L38.3868 80.4387C37.646 80.6331 37.0126 81.1134 36.6255 81.7742C36.2383 82.435 36.129 83.2223 36.3216 83.9636L39.4184 95.9877C39.5119 96.3444 39.5342 96.716 39.484 97.0813C39.4338 97.4466 39.3121 97.7984 39.1258 98.1166C38.9395 98.4349 38.6924 98.7133 38.3984 98.9359C38.1045 99.1586 37.7696 99.3211 37.4128 99.4142L35.4001 99.9275C35.0432 100.021 34.7082 100.183 34.4142 100.406C34.1202 100.629 33.873 100.907 33.6867 101.225C33.5004 101.544 33.3787 101.896 33.3286 102.261C33.2784 102.627 33.3008 102.998 33.3945 103.355L34.4986 107.698C40.0474 108.782 45.765 108.652 51.2589 107.317C55.6127 106.267 59.7544 104.478 63.5044 102.03C62.6068 101.302 61.3597 100.964 60.1325 101.288ZM52.1247 31.4229L42.141 33.9994C41.8041 34.0864 41.4878 34.2392 41.2103 34.4491C40.9328 34.6589 40.6996 34.9217 40.5243 35.2222C40.349 35.5228 40.235 35.855 40.1888 36.1999C40.1427 36.5447 40.1653 36.8953 40.2555 37.2314L42.1986 44.8122C42.3752 45.4893 42.8108 46.0698 43.4114 46.4287C44.0121 46.7875 44.7298 46.8959 45.4096 46.7305L59.08 43.2087C60.3072 42.885 61.5444 43.6416 61.8621 44.842L61.8999 44.9989C61.965 45.2496 61.9799 45.5107 61.9436 45.7671C61.9074 46.0236 61.8209 46.2704 61.6889 46.4933C61.5569 46.7161 61.3822 46.9107 61.1747 47.0658C60.9672 47.2208 60.7311 47.3333 60.48 47.3968L50.9421 49.8651C50.3009 50.0315 49.7519 50.4455 49.4157 51.0163C49.0795 51.587 48.9835 52.2679 49.1489 52.9094L49.1609 52.962C49.5044 54.2667 48.7081 55.5694 47.4292 55.906L46.1235 56.2485C45.5983 56.3756 45.084 56.0827 44.9579 55.5595L44.7732 54.7969C44.5071 53.807 43.4973 53.1904 42.5064 53.4565L38.6102 54.4533C37.6203 54.7194 37.0027 55.7292 37.2698 56.7202L37.2757 56.747C37.524 57.6575 36.9471 58.6027 36.0346 58.8499L32.6369 59.7267C32.3363 59.8039 32.0539 59.9398 31.8059 60.1265C31.558 60.3132 31.3493 60.547 31.192 60.8146C31.0347 61.0821 30.9318 61.3782 30.8892 61.6856C30.8467 61.993 30.8653 62.3059 30.944 62.6061L32.8156 69.9C33.1462 71.1531 34.4162 71.9295 35.6702 71.5989L38.9101 70.7609C39.3945 70.6348 39.8094 70.3223 40.0643 69.8915C40.3191 69.4607 40.3932 68.9465 40.2704 68.4613L40.2644 68.4355C40.1698 68.0617 40.2262 67.6657 40.4213 67.3331C40.6164 67.0005 40.9345 66.7581 41.3069 66.6582L49.697 64.4926C50.9491 64.163 52.2448 64.9325 52.5755 66.1856L53.2298 68.777C53.5843 70.1343 54.9783 70.9634 56.3366 70.609L62.5294 69.0024C62.8502 68.9179 63.1847 68.8978 63.5133 68.9433C63.842 68.9888 64.1584 69.0989 64.4442 69.2674C64.7301 69.4359 64.9797 69.6594 65.1787 69.9249C65.3776 70.1905 65.522 70.4928 65.6034 70.8145L65.6163 70.8671C65.9469 72.1202 67.2099 72.8698 68.4372 72.5461L70.0576 72.1281C70.4592 72.0287 70.8837 72.0904 71.2405 72.2998C71.5973 72.5093 71.858 72.85 71.9669 73.2491L72.0106 73.4328C72.1724 74.0473 72.5688 74.5737 73.1148 74.8989C73.6607 75.224 74.3124 75.3219 74.9298 75.1714L81.0957 73.5728C81.6101 69.1444 81.333 64.5472 80.225 59.956C76.7855 45.5986 65.4018 35.1314 52.1247 31.4229ZM21.3803 100.508L21.3932 100.561C21.5598 101.201 21.9734 101.75 22.5435 102.086C23.1136 102.421 23.7936 102.518 24.4345 102.353L24.4881 102.341C25.8186 101.991 26.6288 100.63 26.2793 99.298L24.497 92.3705C24.3944 91.9682 24.2131 91.5901 23.9636 91.2582C23.7141 90.9262 23.4013 90.647 23.0434 90.4365C22.6854 90.226 22.2893 90.0885 21.8779 90.0319C21.4665 89.9753 21.048 90.0007 20.6465 90.1067L20.5939 90.1206C19.604 90.3867 18.5942 89.7701 18.3529 88.7722L17.8763 86.9155C17.7938 86.5835 17.8441 86.2324 18.0166 85.937C18.189 85.6415 18.47 85.4251 18.7997 85.3338L18.8265 85.3268C20.1838 84.9714 21.0139 83.5773 20.6574 82.219L17.8406 71.2385C17.4216 69.618 15.7674 68.6301 14.1469 69.0481L14.0943 69.061C13.7597 69.148 13.4111 69.168 13.0687 69.12C12.7263 69.0719 12.3967 68.9567 12.0989 68.781C11.8011 68.6052 11.541 68.3724 11.3334 68.0959C11.1258 67.8193 10.9748 67.5045 10.8892 67.1695L10.8763 67.1169C10.496 65.6533 11.3787 64.1352 12.8423 63.7549L13.0776 63.6973C15.1706 63.1651 16.4316 61.0284 15.8925 58.9095L15.8855 58.8837L16.0434 58.845C18.3986 58.2492 19.7916 55.8573 19.1959 53.5031L19.183 53.4505L21.2492 52.9243C22.7386 52.537 23.6223 51.0189 23.24 49.5563L21.8569 44.1708C21.7681 43.8181 21.6103 43.4864 21.3926 43.1951C21.1749 42.9037 20.9017 42.6584 20.5886 42.4732C20.2755 42.2881 19.9288 42.1669 19.5686 42.1166C19.2084 42.0662 18.8418 42.0878 18.4899 42.18L18.4373 42.1919C17.3411 42.4848 16.2082 41.8146 15.9094 40.6926L15.7316 39.9579C5.38553 49.3131 0.351488 63.883 3.84652 78.3626C5.87162 86.8159 10.6508 94.3556 17.4315 99.7945L19.3677 99.299C20.2593 99.0836 21.1648 99.6158 21.3803 100.508Z" fill="#FFC244" stroke="#1A1A1A" stroke-width="2.17844"/>
<path fill-rule="evenodd" clip-rule="evenodd" d="M17.3342 11.9737C17.2168 11.7275 17.0076 11.5371 16.7515 11.4432C16.4954 11.3493 16.2127 11.3594 15.964 11.4713C15.7178 11.5887 15.5274 11.798 15.4336 12.0541C15.3399 12.3103 15.3503 12.593 15.4626 12.8415L32.3599 47.8813L34.1808 46.9152L17.3342 11.9737Z" fill="white"/>
<path fill-rule="evenodd" clip-rule="evenodd" d="M17.494 11.0077C17.3292 10.6621 17.0356 10.3948 16.6761 10.2632C16.3165 10.1316 15.9197 10.1462 15.5708 10.3037C15.2256 10.4687 14.9588 10.7622 14.8274 11.1215C14.696 11.4808 14.7105 11.8773 14.8678 12.226L32.1365 48.0342L34.6942 46.6839L17.494 11.0077Z" fill="#FFC333" stroke="#1A1A1A" stroke-width="2.17844"/>
<path d="M36.4973 45.8201L30.095 49.0758" stroke="#1C1C1B" stroke-width="1.97887" stroke-linecap="round" stroke-linejoin="round"/>
<path fill-rule="evenodd" clip-rule="evenodd" d="M50.2511 17.9103L22.818 30.6682L15.4715 14.8382L42.9115 2.10718L40.9932 12.5645L50.2511 17.9103Z" fill="white" stroke="#1A1A1A" stroke-width="2.17844" stroke-linejoin="round"/>
<path fill-rule="evenodd" clip-rule="evenodd" d="M29.1548 11.78C27.2345 12.619 26.2138 14.7141 26.8959 16.4566C27.154 17.1368 27.6435 17.6739 28.2989 18.0324L28.4309 18.1039L31.1972 19.6598C31.1972 19.6598 31.5635 19.8832 32.0431 19.6737L32.1762 19.6101L32.3638 19.5337L32.4691 19.479C32.9487 19.2685 33.035 18.8436 33.035 18.8436L33.9336 15.7388L33.9892 15.5898C34.2156 14.859 34.1779 14.1203 33.9207 13.4402C33.2455 11.7224 31.081 10.9678 29.1548 11.78ZM32.2387 15.285L32.1881 15.4588L31.5288 17.7514L29.4884 16.6145L29.3245 16.5251C28.9969 16.3464 28.7348 16.0684 28.6067 15.7278C28.2462 14.8342 28.7556 13.7877 29.7445 13.3607C30.7325 12.9338 31.8009 13.3151 32.1613 14.2087C32.345 14.5334 32.3628 14.9037 32.2387 15.285ZM32.054 21.7002C31.8684 21.2186 32.1235 20.6437 32.6826 20.4134C33.2406 20.183 33.8006 20.3786 33.9872 20.8602C34.1679 21.3169 33.9118 21.8908 33.3587 22.146C32.8007 22.3763 32.2357 22.1559 32.054 21.7002Z" fill="#FFC333"/>
<path fill-rule="evenodd" clip-rule="evenodd" d="M96.7311 80.3662L94.3332 78.9006C94.1128 78.7651 93.955 78.5478 93.8942 78.2963C93.8334 78.0449 93.8745 77.7795 94.0085 77.5582L96.9237 72.7893C97.0591 72.5689 97.2762 72.4112 97.5276 72.3505C97.779 72.2899 98.0441 72.3312 98.2651 72.4656L100.663 73.9311C101.122 74.2101 101.268 74.8148 100.988 75.2735L98.0735 80.0405C97.9381 80.2611 97.7208 80.419 97.4693 80.4799C97.2177 80.5407 96.9523 80.5005 96.7311 80.3662Z" fill="#FFC333" stroke="#1A1A1A" stroke-width="2.17844"/>
<path fill-rule="evenodd" clip-rule="evenodd" d="M93.0712 90.9229L86.6074 86.9731C86.387 86.8376 86.2292 86.6203 86.1685 86.3687C86.1079 86.1172 86.1493 85.8518 86.2837 85.6307L93.1318 74.4258C93.2675 74.2058 93.4846 74.0484 93.7359 73.9878C93.9871 73.9272 94.2521 73.9682 94.4732 74.1021L100.936 78.0519C101.395 78.3319 101.541 78.9355 101.261 79.3943L94.4136 90.5982C94.278 90.8186 94.0608 90.9764 93.8093 91.0372C93.5578 91.0981 93.2925 91.057 93.0712 90.9229Z" fill="white" stroke="#1A1A1A" stroke-width="2.17844"/>
<path fill-rule="evenodd" clip-rule="evenodd" d="M88.5972 90.9795C86.8004 89.8817 84.6412 89.5425 82.5944 90.0367C80.5476 90.5309 78.781 91.8179 77.6831 93.6146L91.2313 101.894C92.3292 100.097 92.6685 97.9377 92.1745 95.891C91.6805 93.8442 90.3937 92.0775 88.5972 90.9795Z" fill="white" stroke="#1A1A1A" stroke-width="2.17844" stroke-linecap="round" stroke-linejoin="round"/>
<path d="M89.8393 88.947L88.5982 90.9805M84.4577 97.7541L83.2156 99.7866" stroke="#1A1A1A" stroke-width="2.17844" stroke-linecap="round" stroke-linejoin="round"/>
<path fill-rule="evenodd" clip-rule="evenodd" d="M83.3288 102.647C83.2219 102.829 83.08 102.987 82.9112 103.113C82.7424 103.24 82.5501 103.331 82.3457 103.382C82.1412 103.433 81.9286 103.443 81.7202 103.411C81.5118 103.38 81.3119 103.307 81.1321 103.197C80.9523 103.087 80.7961 102.942 80.6728 102.771C80.5495 102.6 80.4614 102.406 80.4137 102.201C80.3661 101.996 80.3598 101.783 80.3952 101.575C80.4307 101.367 80.5071 101.169 80.6201 100.991C80.8434 100.639 81.1958 100.39 81.6013 100.296C82.0069 100.201 82.4333 100.27 82.7885 100.488C83.1437 100.705 83.3994 101.053 83.5005 101.457C83.6015 101.861 83.5399 102.288 83.3288 102.647Z" fill="#FFC333" stroke="#1A1A1A" stroke-width="2.17844"/>
<path fill-rule="evenodd" clip-rule="evenodd" d="M82.9525 81.948L72.1139 75.3243L76.6674 67.8726L87.5059 74.4963L82.9525 81.948Z" fill="white" stroke="#1A1A1A" stroke-width="2.17844" stroke-linejoin="round"/>
<path d="M89.5007 80.3673L85.4357 77.8831" stroke="#1A1A1A" stroke-width="2.17844" stroke-linecap="round" stroke-linejoin="round"/>
<path fill-rule="evenodd" clip-rule="evenodd" d="M103.765 84.4312L114.602 91.0548L110.05 98.5066L99.2113 91.8839L103.765 84.4312Z" fill="white" stroke="#1A1A1A" stroke-width="2.17844" stroke-linejoin="round"/>
<path d="M97.2156 86.0119L101.281 88.4962M82.0867 71.1838L77.5332 78.6356M74.1841 71.9375L85.0217 78.5602M101.958 88.9102L112.119 95.1199M109.184 87.7436L104.63 95.1943M83.2533 107.564C81.953 107.806 80.6102 107.659 79.3929 107.142C78.1539 106.619 77.1004 105.737 76.3685 104.609M83.6157 113.942C81.2923 114.374 78.82 114.153 76.4827 113.162C74.193 112.197 72.2459 110.567 70.8936 108.482" stroke="#1A1A1A" stroke-width="2.17844" stroke-linecap="round" stroke-linejoin="round"/>
</svg>
